<svg width="1080" height="1080" viewBox="0 0 1080 1080" fill="none" xmlns="http://www.w3.org/2000/svg">
<g clip-path="url(#clip0_107_2)">
<path d="M602.5 167L543.5 261.5L485 167L482 103.5L543.5 73L602.5 103.5V167Z" fill="#FEB139" fill-opacity="0.9" stroke="black"/>
<path d="M908.5 593L814 541.5L908.5 488H972L1002.5 541.5L972 593H908.5Z" fill="#D18CE0" fill-opacity="0.9" stroke="black"/>
<path d="M169 488L263.5 540L169 594H105.5L75 540L105.5 488H169Z" fill="#F5FF6D" fill-opacity="0.9" stroke="black"/>
<path d="M492 916.5L539 828L597.5 916.5V980L539 1010.5L492 980V916.5Z" fill="#A1E3D8" fill-opacity="0.9" stroke="black"/>
<path d="M791 540.62C633.876 472.812 611.066 452.996 542.473 289M791 540.62C626.325 612.909 603.974 642.374 543.651 799M791 540.62C791 540.62 996.5 645.74 996.5 540.62C996.5 435.5 791 540.62 791 540.62ZM542.473 289C578.419 199.468 641.5 85.0005 542.473 85.0005C443.446 85.0005 506.938 187.505 542.473 289ZM542.473 289C462.765 459.696 434.526 479.15 279.5 540.62M279.5 540.62C436.555 607.809 464.089 638.65 543.651 799M279.5 540.62C279.5 540.62 81.5001 432.5 81.5001 540.62C81.5 648.74 279.5 540.62 279.5 540.62ZM543.651 799C559.718 868.339 648 998.5 543.651 998.501C439.303 998.501 530.911 861.581 543.651 799Z" stroke="black" stroke-width="25"/>
</g>
<rect x="0.5" y="0.5" width="1079" height="1079" stroke="black"/>
<defs>
<clipPath id="clip0_107_2">
<rect width="1080" height="1080" fill="white"/>
</clipPath>
</defs>
</svg>
