<svg width="1080" height="1080" viewBox="0 0 1080 1080" fill="none" xmlns="http://www.w3.org/2000/svg">
<g clip-path="url(#clip0_104_2)">
<rect width="1080" height="1080" fill="white"/>
<path d="M831.729 540.403C674.731 465.982 611.333 400.455 542.69 242.799M831.729 540.403C669.214 611.425 605.881 675.29 543.44 833.153M831.729 540.403C831.729 540.403 1003.18 623.085 1003.08 540.621C1002.97 458.156 831.729 540.403 831.729 540.403ZM542.69 242.799C578.636 153.267 602.668 72.3532 542.474 72.2767C482.279 72.2001 507.155 141.304 542.69 242.799ZM542.69 242.799C465.669 405.852 399.885 470.738 242.241 539.653M242.241 539.653C398.308 611.266 462.878 677.325 543.44 833.153M242.241 539.653C242.241 539.653 75.0961 455.897 75.2018 539.441C75.3074 622.985 242.241 539.653 242.241 539.653ZM543.44 833.153C557.986 899.006 621.088 999.457 543.651 999.359C466.213 999.26 530.7 895.734 543.44 833.153Z" stroke="black" stroke-width="12"/>
<path d="M529.98 153.457L543.164 171.914L555.82 153.457L543.164 111L529.98 153.457Z" fill="#FEB139"/>
<path d="M543.164 171.914L529.98 153.457L514.5 135C521.5 168.5 533 194 543.164 225.5V171.914Z" fill="#FF8D29"/>
<path d="M555.82 153.457L543.164 171.914V225.5C555.82 189 564.5 171.914 571.5 135L555.82 153.457Z" fill="#FF8D29"/>
<path d="M571.5 135L572.482 135.186L573.187 131.469L570.738 134.353L571.5 135ZM514.5 135L515.266 134.357L513.521 135.205L514.5 135ZM543.164 111L544.122 110.714L543.184 107.565L542.209 110.703L543.164 111ZM543.164 225.5L542.212 225.807L543.13 228.651L544.109 225.828L543.164 225.5ZM543.978 171.333L530.794 152.876L529.167 154.038L542.35 172.495L543.978 171.333ZM530.747 152.814L515.266 134.357L513.734 135.643L529.214 154.1L530.747 152.814ZM530.935 153.754L544.119 111.297L542.209 110.703L529.025 153.16L530.935 153.754ZM543.989 172.48L556.645 154.023L554.996 152.892L542.339 171.349L543.989 172.48ZM556.582 154.104L572.262 135.647L570.738 134.353L555.058 152.81L556.582 154.104ZM542.206 111.286L554.862 153.743L556.779 153.171L544.122 110.714L542.206 111.286ZM542.164 171.914V225.5H544.164V171.914H542.164ZM513.521 135.205C520.534 168.768 532.089 194.434 542.212 225.807L544.116 225.193C533.911 193.566 522.466 168.232 515.479 134.795L513.521 135.205ZM570.518 134.814C563.536 171.632 554.905 188.586 542.219 225.172L544.109 225.828C556.735 189.414 565.464 172.196 572.482 135.186L570.518 134.814Z" fill="black"/>
<path d="M168.223 553.184L186.68 540L168.223 527.344L126.562 540L168.223 553.184Z" fill="#F9FFA4"/>
<path d="M186.68 540L168.223 553.184L149.766 567.5L190.5 555L230.977 540H186.68Z" fill="#FFE400"/>
<path d="M168.223 527.344L186.68 540H230.977L190.5 524.5C176.107 519.348 167.084 516.216 149.766 512L168.223 527.344Z" fill="#FFE400"/>
<path d="M149.766 512L150.002 511.028L149.126 512.769L149.766 512ZM149.766 567.5L149.153 566.71L150.059 568.456L149.766 567.5ZM126.562 540L126.272 539.043L123.186 539.981L126.261 540.953L126.562 540ZM230.977 540L231.324 540.938L233.813 540.015L231.334 539.066L230.977 540ZM190.5 555L190.793 555.956L190.821 555.948L190.847 555.938L190.5 555ZM190.5 524.5L190.858 523.566L190.847 523.562L190.837 523.559L190.5 524.5ZM186.098 539.186L167.641 552.37L168.804 553.997L187.261 540.814L186.098 539.186ZM167.61 552.393L149.153 566.71L150.379 568.29L168.836 553.974L167.61 552.393ZM168.524 552.23L126.864 539.047L126.261 540.953L167.921 554.137L168.524 552.23ZM187.245 539.175L168.788 526.519L167.657 528.168L186.114 540.825L187.245 539.175ZM168.862 526.575L150.405 511.231L149.126 512.769L167.583 528.113L168.862 526.575ZM126.853 540.957L168.513 528.301L167.932 526.387L126.272 539.043L126.853 540.957ZM186.68 541H230.977V539H186.68V541ZM150.059 568.456L190.793 555.956L190.207 554.044L149.472 566.544L150.059 568.456ZM190.847 555.938L231.324 540.938L230.629 539.062L190.153 554.062L190.847 555.938ZM149.529 512.972C166.798 517.175 175.784 520.294 190.163 525.441L190.837 523.559C176.429 518.401 167.369 515.256 150.002 511.028L149.529 512.972ZM190.142 525.434L230.619 540.934L231.334 539.066L190.858 523.566L190.142 525.434Z" fill="black"/>
<path d="M891.297 540.367L909.754 527.184L928.211 513C895.378 521.839 877.571 527.77 847 540.367H891.297Z" fill="#9254C8"/>
<path d="M909.754 553.023L891.297 540.367H847C878.569 553.863 896.37 559.711 928.211 568L909.754 553.023Z" fill="#9254C8"/>
<path d="M909.754 527.184L891.297 540.367L909.754 553.023L951.414 540.367L909.754 527.184Z" fill="#D18CE0"/>
<path d="M928.211 568L927.959 568.968L928.841 567.223L928.211 568ZM928.211 513L928.82 513.793L927.951 512.034L928.211 513ZM951.414 540.367L951.705 541.324L954.79 540.387L951.716 539.414L951.414 540.367ZM847 540.367L846.619 539.443L844.416 540.35L846.607 541.287L847 540.367ZM891.878 541.181L910.335 527.997L909.173 526.37L890.716 539.553L891.878 541.181ZM910.363 527.977L928.82 513.793L927.602 512.207L909.145 526.391L910.363 527.977ZM909.452 528.137L951.112 541.321L951.716 539.414L910.056 526.23L909.452 528.137ZM890.731 541.192L909.188 553.848L910.319 552.199L891.862 539.542L890.731 541.192ZM909.124 553.8L927.581 568.777L928.841 567.223L910.384 552.247L909.124 553.8ZM951.123 539.41L909.463 552.067L910.045 553.98L951.705 541.324L951.123 539.41ZM891.297 539.367H847V541.367H891.297V539.367ZM847.381 541.292C877.91 528.712 895.676 522.794 928.471 513.966L927.951 512.034C895.081 520.884 877.233 526.828 846.619 539.443L847.381 541.292ZM846.607 541.287C878.226 554.804 896.075 560.667 927.959 568.968L928.463 567.032C896.666 558.754 878.913 552.922 847.393 539.448L846.607 541.287Z" fill="black"/>
<path d="M530.656 919.754L543.313 901.297V857C533.513 886.606 525.333 904.168 515.5 938.211L530.656 919.754Z" fill="#6FDFDF"/>
<path d="M543.313 901.297L556.496 919.754L571.5 938.211C561.92 904.809 553.166 887.426 543.313 857V901.297Z" fill="#6FDFDF"/>
<path d="M556.496 919.754L543.313 901.297L530.656 919.754L543.313 961.414L556.496 919.754Z" fill="#A1E3D8"/>
<path d="M515.5 938.211L514.539 937.933L516.273 938.846L515.5 938.211ZM571.5 938.211L570.724 938.842L572.461 937.935L571.5 938.211ZM543.313 961.414L542.356 961.705L543.293 964.79L544.266 961.716L543.313 961.414ZM543.313 857L544.264 856.692L543.323 853.786L542.363 856.686L543.313 857ZM542.499 901.878L555.682 920.335L557.31 919.173L544.126 900.716L542.499 901.878ZM555.72 920.385L570.724 938.842L572.276 937.58L557.272 919.123L555.72 920.385ZM555.543 919.452L542.359 961.112L544.266 961.716L557.449 920.056L555.543 919.452ZM542.488 900.731L529.832 919.188L531.481 920.319L544.137 901.862L542.488 900.731ZM529.883 919.119L514.727 937.576L516.273 938.846L531.429 920.389L529.883 919.119ZM544.269 961.123L531.613 919.463L529.699 920.045L542.356 961.705L544.269 961.123ZM544.313 901.297V857H542.313V901.297H544.313ZM542.363 856.686C532.607 886.163 524.371 903.895 514.539 937.933L516.461 938.488C526.296 904.44 534.42 887.049 544.262 857.314L542.363 856.686ZM542.361 857.308C547.297 872.548 551.959 884.527 556.572 896.84C561.186 909.154 565.759 921.822 570.539 938.487L572.461 937.935C567.661 921.197 563.067 908.473 558.445 896.138C553.823 883.802 549.182 871.877 544.264 856.692L542.361 857.308Z" fill="black"/>
<path d="M666.562 584.565C669.048 584.565 671.062 582.55 671.062 580.065C671.062 577.579 669.048 575.565 666.562 575.565V584.565ZM411.414 575.565C408.93 575.518 406.877 577.493 406.829 579.978C406.781 582.463 408.757 584.516 411.242 584.564L411.414 575.565ZM484.465 460.125C483.512 460.125 482.828 459.8 482.509 459.616C482.177 459.425 481.988 459.244 481.942 459.199C481.857 459.115 481.928 459.168 482.158 459.513C482.596 460.173 483.218 461.296 484.021 462.943C485.606 466.196 487.627 470.935 489.966 476.748C494.632 488.349 500.405 503.841 506.222 519.419C512.024 534.955 517.869 550.577 522.64 562.315C525.02 568.171 527.174 573.162 528.948 576.724C529.825 578.484 530.682 580.044 531.49 581.219C531.885 581.792 532.382 582.442 532.977 582.997C533.395 583.388 534.714 584.565 536.706 584.565V575.565C537.588 575.565 538.23 575.847 538.551 576.021C538.878 576.199 539.068 576.371 539.118 576.418C539.208 576.502 539.137 576.454 538.904 576.115C538.457 575.467 537.822 574.354 537.004 572.711C535.389 569.468 533.34 564.737 530.978 558.926C526.265 547.333 520.469 531.844 514.653 516.271C508.853 500.738 503.034 485.12 498.316 473.389C495.961 467.537 493.842 462.553 492.111 459.001C491.256 457.246 490.426 455.695 489.653 454.532C489.277 453.965 488.802 453.319 488.236 452.765C487.879 452.417 486.542 451.125 484.465 451.125V460.125ZM536.706 584.565C538.661 584.565 539.976 583.426 540.383 583.061C540.98 582.527 541.492 581.896 541.907 581.33C542.758 580.172 543.679 578.624 544.634 576.866C546.566 573.312 548.942 568.327 551.583 562.47C556.876 550.731 563.4 535.112 569.843 519.568C576.301 503.986 582.676 488.481 587.711 476.857C590.232 471.037 592.384 466.268 594.022 462.978C594.85 461.315 595.49 460.145 595.941 459.434C596.179 459.061 596.269 458.965 596.225 459.014C596.206 459.034 596.038 459.221 595.728 459.433C595.478 459.603 594.656 460.125 593.425 460.125V451.125C592.059 451.125 591.081 451.708 590.657 451.998C590.171 452.329 589.808 452.694 589.574 452.95C589.101 453.47 588.685 454.073 588.343 454.611C587.637 455.723 586.832 457.226 585.965 458.966C584.215 462.482 581.984 467.434 579.452 473.28C574.38 484.989 567.965 500.593 561.529 516.122C555.078 531.687 548.605 547.178 543.378 558.771C540.758 564.581 538.494 569.318 536.727 572.569C535.833 574.214 535.14 575.34 534.652 576.004C534.399 576.349 534.311 576.417 534.381 576.354C534.42 576.319 534.597 576.163 534.906 575.999C535.204 575.841 535.834 575.565 536.706 575.565V584.565ZM593.425 460.125C591.983 460.125 590.951 459.427 590.399 458.864C589.913 458.367 589.702 457.895 589.643 457.759C589.522 457.478 589.539 457.388 589.599 457.75C589.703 458.388 589.798 459.5 589.885 461.2C590.064 464.728 590.147 469.146 590.424 475.272C590.958 487.034 592.144 502.913 595.887 518.872C599.619 534.786 605.98 551.164 617.125 563.621C628.415 576.24 644.384 584.565 666.562 584.565V575.565C646.948 575.565 633.418 568.334 623.833 557.62C614.103 546.745 608.213 532.014 604.649 516.817C601.096 501.666 599.94 486.436 599.415 474.865C599.164 469.325 599.039 464.021 598.873 460.744C598.787 459.042 598.675 457.48 598.48 456.295C598.39 455.746 598.235 454.957 597.912 454.205C597.752 453.834 597.432 453.183 596.829 452.566C596.16 451.883 595.002 451.125 593.425 451.125V460.125ZM411.242 584.564C432.409 584.97 447.772 576.77 458.734 564.222C469.541 551.851 475.914 535.453 479.841 519.489C483.781 503.472 485.354 487.477 486.296 475.639C486.774 469.627 487.077 464.876 487.441 461.518C487.625 459.819 487.798 458.752 487.948 458.177C488.033 457.854 488.033 457.996 487.84 458.315C487.726 458.504 486.705 460.125 484.465 460.125V451.125C481.878 451.125 480.542 452.992 480.139 453.658C479.658 454.453 479.397 455.303 479.241 455.901C478.909 457.171 478.681 458.809 478.493 460.55C478.112 464.074 477.784 469.152 477.324 474.925C476.391 486.657 474.861 502.056 471.102 517.339C467.33 532.674 461.408 547.481 451.956 558.301C442.66 568.942 429.801 575.918 411.414 575.565L411.242 584.564Z" fill="black"/>
</g>
<rect x="0.5" y="0.5" width="1079" height="1079" stroke="black"/>
<defs>
<clipPath id="clip0_104_2">
<rect width="1080" height="1080" fill="white"/>
</clipPath>
</defs>
</svg>
